<svg xmlns="http://www.w3.org/2000/svg" x="0px" y="0px" width="100" height="100" viewBox="0 0 48 48">
<linearGradient id="U8Yg0Q5gzpRbQDBSnSCfPa_yoQabS8l0qpr_gr1" x1="4.338" x2="38.984" y1="-10.056" y2="49.954" gradientUnits="userSpaceOnUse"><stop offset="0" stop-color="#4b4b4b"></stop><stop offset=".247" stop-color="#3e3e3e"></stop><stop offset=".686" stop-color="#2b2b2b"></stop><stop offset="1" stop-color="#252525"></stop></linearGradient><path fill="url(#U8Yg0Q5gzpRbQDBSnSCfPa_yoQabS8l0qpr_gr1)" d="M38,42H10c-2.209,0-4-1.791-4-4V10c0-2.209,1.791-4,4-4h28c2.209,0,4,1.791,4,4v28	C42,40.209,40.209,42,38,42z"></path><path fill="#fff" d="M34.257,34h-6.437L13.829,14h6.437L34.257,34z M28.587,32.304h2.563L19.499,15.696h-2.563 L28.587,32.304z"></path><polygon fill="#fff" points="15.866,34 23.069,25.656 22.127,24.407 13.823,34"></polygon><polygon fill="#fff" points="24.45,21.721 25.355,23.01 33.136,14 31.136,14"></polygon>
</svg>
